<svg xmlns="http://www.w3.org/2000/svg" xmlns:xlink="http://www.w3.org/1999/xlink" width="1024" zoomAndPan="magnify" viewBox="0 0 768 576" height="768" preserveAspectRatio="xMidYMid meet" version="1.0"><defs><clipPath id="cca00a17a5"><path d="M 256.941406 172.800781 L 487.191406 172.800781 L 487.191406 403.050781 L 256.941406 403.050781 Z M 256.941406 172.800781 " clip-rule="nonzero"/></clipPath><clipPath id="5bf20a82fa"><path d="M 309 192 L 436 192 L 436 384 L 309 384 Z M 309 192 " clip-rule="nonzero"/></clipPath><clipPath id="73e00315fd"><path d="M 435.25 207.246094 L 333.671875 383.023438 L 309.015625 368.773438 L 410.59375 192.996094 Z M 435.25 207.246094 " clip-rule="nonzero"/></clipPath><clipPath id="55894ee06b"><path d="M 435.25 207.246094 L 333.679688 383.007812 L 309.023438 368.757812 L 410.59375 192.996094 Z M 435.25 207.246094 " clip-rule="nonzero"/></clipPath><clipPath id="8575d5ea38"><path d="M 142 220 L 236 220 L 236 374 L 142 374 Z M 142 220 " clip-rule="nonzero"/></clipPath><clipPath id="23caed665d"><path d="M 141.195312 372.726562 L 144.023438 219.601562 L 236.695312 221.316406 L 233.863281 374.441406 Z M 141.195312 372.726562 " clip-rule="nonzero"/></clipPath><clipPath id="c520c15dc4"><path d="M 190.355469 220.617188 L 142.609375 296.246094 L 180.847656 296.949219 L 179.4375 373.433594 L 195.625 373.734375 L 197.035156 297.25 L 235.277344 297.957031 Z M 190.355469 220.617188 " clip-rule="nonzero"/></clipPath><clipPath id="8d5e023a3f"><path d="M 507.5 221.453125 L 600.1875 221.453125 L 600.1875 374.601562 L 507.5 374.601562 Z M 507.5 221.453125 " clip-rule="nonzero"/></clipPath><clipPath id="85ba76ee6c"><path d="M 553.84375 374.445312 L 600.1875 297.949219 L 561.941406 297.949219 L 561.941406 221.453125 L 545.75 221.453125 L 545.75 297.949219 L 507.5 297.949219 Z M 553.84375 374.445312 " clip-rule="nonzero"/></clipPath><clipPath id="80f0a4fbe2"><path d="M 297 201 L 452 201 L 452 375 L 297 375 Z M 297 201 " clip-rule="nonzero"/></clipPath><clipPath id="8e029e1b3e"><path d="M 319.207031 201.558594 L 451.015625 355.96875 L 429.355469 374.457031 L 297.546875 220.046875 Z M 319.207031 201.558594 " clip-rule="nonzero"/></clipPath><clipPath id="85b29fdde4"><path d="M 319.207031 201.558594 L 451.003906 355.957031 L 429.34375 374.445312 L 297.546875 220.046875 Z M 319.207031 201.558594 " clip-rule="nonzero"/></clipPath></defs><g clip-path="url(#cca00a17a5)"><path fill="#000000" d="M 372.066406 172.800781 C 308.460938 172.800781 256.941406 224.320312 256.941406 287.925781 C 256.941406 351.53125 308.460938 403.050781 372.066406 403.050781 C 435.671875 403.050781 487.191406 351.53125 487.191406 287.925781 C 487.191406 224.320312 435.671875 172.800781 372.066406 172.800781 Z M 372.066406 380.023438 C 321.296875 380.023438 279.96875 338.695312 279.96875 287.925781 C 279.96875 237.15625 321.296875 195.824219 372.066406 195.824219 C 422.835938 195.824219 464.167969 237.15625 464.167969 287.925781 C 464.167969 338.695312 422.835938 380.023438 372.066406 380.023438 Z M 372.066406 380.023438 " fill-opacity="1" fill-rule="nonzero"/></g><g clip-path="url(#5bf20a82fa)"><g clip-path="url(#73e00315fd)"><g clip-path="url(#55894ee06b)"><path fill="#000000" d="M 435.25 207.246094 L 333.671875 383.023438 L 309.015625 368.773438 L 410.59375 192.996094 Z M 435.25 207.246094 " fill-opacity="1" fill-rule="nonzero"/></g></g></g><g clip-path="url(#8575d5ea38)"><g clip-path="url(#23caed665d)"><g clip-path="url(#c520c15dc4)"><path fill="#000000" d="M 141.195312 372.726562 L 144.023438 219.601562 L 236.695312 221.316406 L 233.863281 374.441406 Z M 141.195312 372.726562 " fill-opacity="1" fill-rule="nonzero"/></g></g></g><g clip-path="url(#8d5e023a3f)"><g clip-path="url(#85ba76ee6c)"><path fill="#000000" d="M 600.1875 221.453125 L 600.1875 374.601562 L 507.5 374.601562 L 507.5 221.453125 Z M 600.1875 221.453125 " fill-opacity="1" fill-rule="nonzero"/></g></g><g clip-path="url(#80f0a4fbe2)"><g clip-path="url(#8e029e1b3e)"><g clip-path="url(#85b29fdde4)"><path fill="#000000" d="M 319.207031 201.558594 L 451.015625 355.96875 L 429.355469 374.457031 L 297.546875 220.046875 Z M 319.207031 201.558594 " fill-opacity="1" fill-rule="nonzero"/></g></g></g></svg>