<svg xmlns="http://www.w3.org/2000/svg" xmlns:xlink="http://www.w3.org/1999/xlink" width="1024" zoomAndPan="magnify" viewBox="0 0 768 576" height="768" preserveAspectRatio="xMidYMid meet" version="1.0"><defs><clipPath id="73225707ea"><path d="M 268.800781 172.800781 L 499.050781 172.800781 L 499.050781 403.050781 L 268.800781 403.050781 Z M 268.800781 172.800781 " clip-rule="nonzero"/></clipPath></defs><g clip-path="url(#73225707ea)"><path fill="#000000" d="M 486.550781 251.085938 L 486.550781 185.300781 L 465.171875 206.679688 C 443.460938 184.640625 414.515625 172.800781 383.925781 172.800781 C 353.335938 172.800781 324.390625 184.640625 302.679688 206.679688 C 280.640625 228.390625 268.800781 257.335938 268.800781 287.925781 C 268.800781 318.515625 280.640625 347.460938 302.679688 369.167969 C 324.390625 391.207031 353.335938 403.050781 383.925781 403.050781 C 414.515625 403.050781 443.460938 391.207031 465.167969 369.167969 C 487.207031 347.460938 499.050781 318.515625 499.050781 287.925781 L 466.15625 287.925781 C 466.15625 309.960938 457.605469 330.683594 442.144531 346.144531 C 426.6875 361.605469 405.964844 370.15625 383.925781 370.15625 C 361.886719 370.15625 341.164062 361.605469 325.703125 346.144531 C 310.242188 330.6875 301.691406 309.960938 301.691406 287.925781 C 301.691406 265.886719 310.246094 245.164062 325.703125 229.703125 C 341.164062 214.242188 361.886719 205.691406 383.925781 205.691406 C 405.964844 205.691406 426.683594 214.246094 442.144531 229.703125 L 420.765625 251.082031 L 486.550781 251.082031 Z M 486.550781 251.085938 " fill-opacity="1" fill-rule="nonzero"/></g></svg>